<svg width="15" height="7" viewBox="0 0 15 7" fill="none" xmlns="http://www.w3.org/2000/svg">
<path d="M6.50822 6.20427L0.646785 1.45027C-0.0449523 0.890927 0.517237 0.0124515 1.56707 0.0124515H13.2899C13.5249 0.0123086 13.7549 0.0602234 13.9525 0.150458C14.15 0.240693 14.3068 0.369423 14.4039 0.521232C14.501 0.673041 14.5344 0.841494 14.5 1.00642C14.4657 1.17134 14.3651 1.32575 14.2102 1.45114L8.34878 6.2034C8.23407 6.29655 8.0926 6.3712 7.93388 6.42235C7.77515 6.4735 7.60283 6.49997 7.4285 6.49997C7.25417 6.49997 7.08186 6.4735 6.92313 6.42235C6.76441 6.3712 6.62294 6.29742 6.50822 6.20427Z" fill="white"/>
</svg>
